<svg width="27" height="31" viewBox="0 0 27 31" fill="none" xmlns="http://www.w3.org/2000/svg">
<path d="M12.7059 31C11.8324 31 11.0846 30.6965 10.4625 30.0894C9.84044 29.4823 9.52941 28.7525 9.52941 27.9H15.8824C15.8824 28.7525 15.5713 29.4823 14.9493 30.0894C14.3272 30.6965 13.5794 31 12.7059 31ZM0 26.35V23.25H3.17647V12.4C3.17647 10.2558 3.83824 8.35063 5.16177 6.68438C6.48529 5.01813 8.20588 3.92667 10.3235 3.41V2.325C10.3235 1.67917 10.5551 1.13021 11.0184 0.678125C11.4816 0.226042 12.0441 0 12.7059 0C13.3676 0 13.9301 0.226042 14.3934 0.678125C14.8566 1.13021 15.0882 1.67917 15.0882 2.325V2.82875C14.7971 3.39708 14.5853 3.97833 14.4529 4.5725C14.3206 5.16667 14.2676 5.77375 14.2941 6.39375C14.0294 6.34208 13.7713 6.29688 13.5199 6.25812C13.2684 6.21938 12.9971 6.2 12.7059 6.2C10.9588 6.2 9.46324 6.80708 8.21912 8.02125C6.975 9.23542 6.35294 10.695 6.35294 12.4V23.25H19.0588V13.2913C19.5353 13.4979 20.0449 13.6594 20.5875 13.7756C21.1301 13.8919 21.6794 13.95 22.2353 13.95V23.25H25.4118V26.35H0ZM22.2353 10.85C20.9118 10.85 19.7868 10.3979 18.8603 9.49375C17.9338 8.58958 17.4706 7.49167 17.4706 6.2C17.4706 4.90833 17.9338 3.81042 18.8603 2.90625C19.7868 2.00208 20.9118 1.55 22.2353 1.55C23.5588 1.55 24.6838 2.00208 25.6103 2.90625C26.5368 3.81042 27 4.90833 27 6.2C27 7.49167 26.5368 8.58958 25.6103 9.49375C24.6838 10.3979 23.5588 10.85 22.2353 10.85Z" fill="black"/>
</svg>
